<svg xmlns="http://www.w3.org/2000/svg" width="20.405" height="20.405" viewBox="0 0 20.405 20.405" fill="none">
  <path d="M 14.583 12.833 L 13.662 12.833 L 13.335 12.518 C 14.478 11.188 15.167 9.462 15.167 7.583 C 15.167 3.395 11.772 0 7.583 0 C 3.395 0 0 3.395 0 7.583 C 0 11.772 3.395 15.167 7.583 15.167 C 9.462 15.167 11.188 14.478 12.518 13.335 L 12.833 13.662 L 12.833 14.583 L 18.667 20.405 L 20.405 18.667 L 14.583 12.833 Z M 7.583 12.833 C 4.678 12.833 2.333 10.488 2.333 7.583 C 2.333 4.678 4.678 2.333 7.583 2.333 C 10.488 2.333 12.833 4.678 12.833 7.583 C 12.833 10.488 10.488 12.833 7.583 12.833 Z" fill="currentColor" fill-rule="nonzero"></path>
</svg>